<svg id="Layer_1" data-name="Layer 1" xmlns="http://www.w3.org/2000/svg" viewBox="0 0 429.93 471.12"><defs><style>.cls-1{fill:#ea4335;}.cls-2{fill:#fbbc04;}.cls-3{fill:#4285f4;}.cls-4{fill:#34a853;}</style></defs><title>google-play-2022-logo-freelogovectors.net</title><path class="cls-1" d="M234.55,239.28,36.32,446.52h0a54.07,54.07,0,0,0,51.49,38.62q15.45,0,27-7.73h0L338.82,350Z" transform="translate(-35.03 -14.01)"/><path class="cls-2" d="M435.36,203.23h0l-96.54-55.35L230.69,243.14,340.11,350l96.54-54.07c16.73-9,28.32-27,28.32-46.34A57.82,57.82,0,0,0,435.36,203.23Z" transform="translate(-35.03 -14.01)"/><path class="cls-3" d="M36.32,52.63C35,56.49,35,61.64,35,66.79V433.65c0,5.15,0,9,1.29,14.16l206-202.1Z" transform="translate(-35.03 -14.01)"/><path class="cls-4" d="M235.84,249.57l103-101.69L116.13,21.74c-7.72-5.15-18-7.73-28.32-7.73C63.35,14,41.47,30.75,36.32,52.63h0Z" transform="translate(-35.03 -14.01)"/></svg>